<svg xmlns="http://www.w3.org/2000/svg" viewBox="0 0 348.64 84.66"><defs><style>.cls-1{fill:#B02F63;}.cls-2{fill:#2b2a29;}</style></defs><title>Цветной</title><g id="Слой_2" data-name="Слой 2"><g id="Слой_1-2" data-name="Слой 1"><path class="cls-1" d="M47,0H89c3,.07,4.31,1.26,4.61,4.21a19,19,0,0,1,.08,1.92q0,36.35,0,72.7c0,.64,0,1.28-.08,1.92-.27,2.7-1.34,3.73-4.05,3.9-.4,0-.8,0-1.2,0H5.6a14.89,14.89,0,0,1-2.27-.16A3.56,3.56,0,0,1,0,80.75c0-.56,0-1.12,0-1.68Q0,42.42,0,5.78C0,5.22,0,4.65,0,4.1a4,4,0,0,1,3.83-4A21.12,21.12,0,0,1,6,0ZM68.3,34.51c1.84.12,3.58.25,5.33.33A1.8,1.8,0,0,0,75.8,32.9c.07-2.08.07-4.16,0-6.24a1.82,1.82,0,0,0-2.15-2c-2.28.06-4.56.23-6.83.22-5.8,0-11.59-.14-17.39-.22-1.68,0-2.32.56-2.36,2.26s0,3.36,0,5c0,2.51.59,3,3.08,2.83,1.46-.12,2.92-.2,4.49-.3.21,5.16.82,10.13.13,15.22a7.47,7.47,0,0,1-2-1.72Q44.11,37,35.46,25.93a1.9,1.9,0,0,0-1.9-.85c-3.18.27-6.37.41-9.56.51-1.44,0-1.67.14-1.67,1.62q0,20.87,0,41.75c0,1.58.18,1.76,1.83,1.77,3.32,0,6.64,0,10,0,2.09,0,2.21-.1,2.17-2.15-.14-6.88-.3-13.75-.45-20.63,0-.45,0-.91,0-1.36l.33-.11c.28.3.58.58.84.9C42.8,54.63,48.63,61.9,54.5,69.13a3.55,3.55,0,0,0,2.06,1.41c3.19.19,6.39.14,9.58.2,1.19,0,1.57-.5,1.58-1.67.14-11.07.33-22.15.5-33.22C68.23,35.46,68.27,35.07,68.3,34.51ZM28.15,10.78l-.08.15c-.71.11-1.43.17-2.12.35a6.53,6.53,0,0,0-5.08,5.82c-.11,2.61,1.87,5.09,4.8,6a7.67,7.67,0,0,0,6.15-.53,5.81,5.81,0,0,0,3.48-5.44,5.71,5.71,0,0,0-3.54-5.27A23.72,23.72,0,0,0,28.15,10.78Z"/><path class="cls-2" d="M172.6,38.3V36.8q0-16.5,0-33a3.91,3.91,0,0,1,.07-1.42c.16-.38.62-.89,1-.9,3-.06,5.92-.06,8.88,0,.35,0,.76.61,1,1,.14.23,0,.62,0,.94q0,25.91,0,51.83c0,2.07,0,2.09-2.07,2.1-2.56,0-5.12-.07-7.68,0a3.32,3.32,0,0,1-3.23-1.77c-4.73-7.41-9.51-14.79-14.28-22.18L149,22.18a1.93,1.93,0,0,0-.93-.8q0,.67,0,1.33,0,15.9,0,31.79c0,.52,0,1,0,1.56,0,1-.44,1.34-1.39,1.33-2.72,0-5.44,0-8.16,0-1.08,0-1.36-.48-1.34-1.47,0-3.2,0-6.4,0-9.6q0-21.6,0-43.19c0-1.7,0-1.69,1.71-1.69,2.68,0,5.36,0,8,0a2.65,2.65,0,0,1,2.56,1.37q11,17.25,22,34.46l.72,1.09Z"/><path class="cls-2" d="M245.7,29.5q0-12.42,0-24.83c0-.6,0-1.2,0-1.8,0-.87.44-1.22,1.27-1.2s1.76,0,2.64,0h37.67c1.54,0,1.6.05,1.61,1.64,0,2,0,4,0,6,0,1.73,0,1.76-1.73,1.76H259.72c-2.3,0-2.3,0-2.29,2.29,0,2.92,0,5.84,0,8.76,0,1.08.37,1.47,1.48,1.47,8.6,0,17.2,0,25.79,0,1.81,0,2,.16,2,1.94,0,2,0,3.92.06,5.88,0,1.08-.41,1.55-1.47,1.54-2.32,0-4.64,0-7,0-6.48,0-13,0-19.44,0-1.08,0-1.51.35-1.51,1.44,0,4.16,0,8.32,0,12.48,0,1.17.47,1.49,1.58,1.48,9.68,0,19.36,0,29,0,1.82,0,2,.16,2,2,0,2,0,4,0,6,0,1-.36,1.42-1.41,1.42q-20.58,0-41.15,0c-1.58,0-1.81-.25-1.81-2q0-13.08,0-26.15Z"/><path class="cls-2" d="M310.1,29.12c.11,4.1.34,7.77,1.65,11.27,3.2,8.51,14.11,11.48,20.91,5.69A15.09,15.09,0,0,0,337,39c.63-1.89.63-1.88,2.48-1.3,2.63.82,5.27,1.6,7.9,2.41,1.39.43,1.5.63,1.07,2-3.37,10.37-11.19,16.19-22.1,16.51a29.1,29.1,0,0,1-12.68-2,24,24,0,0,1-14-15.49,36.51,36.51,0,0,1,.62-24c3.62-9.56,10.86-14.75,20.91-16a28.72,28.72,0,0,1,16.61,2.4,20.5,20.5,0,0,1,10.55,12.32c.3.87.08,1.39-.83,1.6-3.07.71-6.15,1.41-9.22,2.14-.94.22-1.27-.3-1.55-1.05a11.61,11.61,0,0,0-10.41-8c-5.24-.5-9.74,1.08-12.94,5.46-2,2.8-2.7,6.1-3,9.47C310.17,26.74,310.16,28.14,310.1,29.12Z"/><path class="cls-2" d="M220.76,34.33q0,10.74,0,21.48c0,1.52-.22,1.79-1.69,1.8-2.88,0-5.76,0-8.64,0-1.07,0-1.6-.41-1.58-1.58q.12-6.12.14-12.23,0-15.48,0-31c0-1.49-.22-1.75-1.86-1.76-4.48,0-9,0-13.44,0-2,0-2.06,0-2.08-2.08,0-1.88,0-3.76,0-5.64,0-1.63.07-1.68,1.69-1.68h40.31c1,0,2.08,0,3.12,0,.74,0,1.17.34,1.17,1q0,3.66,0,7.31c0,1.07-.79,1.11-1.61,1.1q-6.54,0-13.08,0c-2.55,0-2.53,0-2.53,2.5q0,10.38,0,20.76Z"/><path class="cls-2" d="M115,29.29q0-13,0-25.91c0-1.93,0-1.93,1.92-1.93,2.72,0,5.44,0,8.16,0,1.64,0,1.67,0,1.67,1.7q0,24.77,0,49.54c0,1.12,0,2.24,0,3.36a1.14,1.14,0,0,1-1.31,1.32h-9.12c-1.07,0-1.43-.51-1.42-1.57,0-8.84,0-17.67,0-26.51Z"/><path class="cls-2" d="M239,80.75l2.49-4.15c.66-1.1,1.38-2.16,2-3.3a1.54,1.54,0,0,1,2.17-.86v11H244.2v-8.3l-.24-.1c-.19.25-.39.5-.56.77-1.34,2.23-2.7,4.44-4,6.7-.49.86-1,1.26-2.07.86v-11h1.39v8.29Z"/><path class="cls-2" d="M253.28,72.35h1.4v8.29l.32.08,2.19-3.61c.76-1.26,1.56-2.51,2.26-3.81a1.51,1.51,0,0,1,2.11-.85v11h-1.38V74.76c-.37.47-.57.68-.71.92-1.36,2.26-2.76,4.49-4,6.79a1.58,1.58,0,0,1-2.15.93Z"/><path class="cls-2" d="M302.18,77.9c0,4.35-3,6.8-6.94,5.61l-.23-.07c-2.84-1-4.13-5.27-2.6-8.56a5.24,5.24,0,0,1,7.29-2.11C301.33,73.68,302.17,75.43,302.18,77.9Zm-8.85,0A18.72,18.72,0,0,0,293.7,80a3.44,3.44,0,0,0,6.63,0,6.77,6.77,0,0,0-.13-4.58,3.16,3.16,0,0,0-3.28-2.11,3.12,3.12,0,0,0-3.11,2.18A17.64,17.64,0,0,0,293.33,77.91Z"/><path class="cls-2" d="M184.33,77c0,5.21-3,7.67-6.92,6.49l-.23-.07c-2.84-1-4.15-5.26-2.62-8.55a5.21,5.21,0,0,1,7.28-2.12A4.91,4.91,0,0,1,184.33,77Zm-8.85.92a18,18,0,0,0,.37,2.06,3.34,3.34,0,0,0,3.35,2.55A3.09,3.09,0,0,0,182.43,80a12.15,12.15,0,0,0-.08-4.45c-.33-1.56-1.63-2.26-3.27-2.23a3.14,3.14,0,0,0-3.15,2.29A17.66,17.66,0,0,0,175.49,77.94Z"/><path class="cls-2" d="M217,77.76c.11,4.37-3,6.94-6.94,5.75a4.67,4.67,0,0,1-.56-.21c-2.61-1.17-3.72-5.13-2.34-8.29a5.14,5.14,0,0,1,6.9-2.45C216.35,73.55,217,75.52,217,77.76Zm-8.87.18a18.42,18.42,0,0,0,.37,2.06,3.36,3.36,0,0,0,3.37,2.54A3.12,3.12,0,0,0,215.13,80a12.3,12.3,0,0,0-.11-4.45c-.34-1.58-1.62-2.26-3.27-2.23a3.16,3.16,0,0,0-3.15,2.29A17.8,17.8,0,0,0,208.17,77.94Z"/><path class="cls-2" d="M198.33,73.68h-4c-.05.59-.09,1.17-.15,1.75-.17,1.83-.22,3.68-.57,5.47a2.84,2.84,0,0,1-3.39,2.55l-.07-1.21c1.52,0,2-1,2.15-2.27.2-2.19.36-4.38.46-6.57,0-.82.26-1.12,1.11-1.09,1.91.06,3.83,0,5.86,0V83.46l-1.38.07Z"/><path class="cls-2" d="M158.68,72.35H160v4.34h5.49v-4.3l1.45-.07V83.43h-1.35V78.11h-5.53v5.33h-1.43Z"/><path class="cls-2" d="M129.9,83.46v-11h7.22l.08,1.17h-5.85c0,.84,0,1.55,0,2.25s.26,1,1,1c1.43,0,2.86,0,4.37,0V78h-5.24v4.26h5.67v1.21Z"/><path class="cls-2" d="M347,83.4c-1.07.32-1.64.11-2-1-.57-2-.65-2-2.73-2H342c-2.13,0-2.19,0-2.8,2.05-.29,1-.78,1.28-1.83,1,.15-.47.3-1,.46-1.42,1-2.89,2.06-5.78,3.06-8.68.23-.68.53-1,1.34-1a1.15,1.15,0,0,1,1.25,1C344.6,76.63,345.81,80,347,83.4ZM344,79.12l-1.85-5.37-1.82,5.37Z"/><path class="cls-2" d="M280,79.44v4l-1.45.08V72.2a42.41,42.41,0,0,1,5.14.5,2.86,2.86,0,0,1,2.16,3.3,3.47,3.47,0,0,1-2.95,3.17C282,79.33,281,79.34,280,79.44Zm.11-5.85V78.1c1.47-.08,3.07.37,3.83-1.19a2.88,2.88,0,0,0-.09-2.43C282.93,73.17,281.42,73.61,280.08,73.59Z"/><path class="cls-2" d="M147.62,76.75l2.25-3.43c.69-1.06.69-1.06,2.22-.92C151,74,150,75.53,149,77a1.25,1.25,0,0,0,0,1.69c1,1.5,2,3.06,3,4.67a1.64,1.64,0,0,1-2.29-.84c-.62-1.15-1.4-2.22-2.22-3.5-.82,1.25-1.62,2.32-2.27,3.48a1.66,1.66,0,0,1-2.22.89c.93-1.4,1.77-2.82,2.77-4.11a1.89,1.89,0,0,0,0-2.7c-1-1.28-1.79-2.71-2.71-4.12a1.65,1.65,0,0,1,2.27.83C146,74.44,146.82,75.5,147.62,76.75Z"/><path class="cls-2" d="M317.42,74.51a33.68,33.68,0,0,0-3.4-1.09,3.21,3.21,0,0,0-1.75.25c-2.11.85-3,4.19-1.82,6.71,1,2.08,3.26,2.74,5.5,1.56.38-.2.75-.44,1.13-.67.38,1.43.32,1.55-.94,2-2.65,1-5.29.38-6.65-1.48a7.14,7.14,0,0,1,.1-7.79c1.55-2,5.4-2.58,7.31-1.08C317.26,73.21,317.25,73.95,317.42,74.51Z"/><path class="cls-2" d="M322.82,73.68v-1.3h9.28v1.23h-3.84v9.83h-1.52V73.68Z"/><path class="cls-2" d="M118.09,73.61h-4l-.06-1.21h9.42v1.23h-4v9.84h-1.43Z"/><path class="cls-2" d="M230.79,72.41v1.21h-5.37v9.84l-1.4.06V72.41Z"/></g></g></svg>